<svg xmlns="http://www.w3.org/2000/svg" xmlns:xlink="http://www.w3.org/1999/xlink" width="2000" zoomAndPan="magnify" viewBox="0 0 1500 383.999986" height="512" preserveAspectRatio="xMidYMid meet" version="1.0"><defs><g/><clipPath id="46eed1bcea"><path d="M 181.789062 87.554688 L 384.289062 87.554688 L 384.289062 289.304688 L 181.789062 289.304688 Z M 181.789062 87.554688 " clip-rule="nonzero"/></clipPath></defs><g clip-path="url(#46eed1bcea)"><path fill="#000000" d="M 181.898438 87.554688 L 182.539062 87.554688 L 215.480469 120.734375 L 215.480469 238.601562 L 181.898438 272.394531 Z M 215.480469 255.5 L 181.898438 289.292969 L 316.46875 289.292969 L 316.46875 255.5 Z M 283.199219 188.421875 L 225.84375 131.277344 L 225.84375 178.507812 L 283.199219 236.078125 L 350.863281 168.746094 L 350.863281 289.285156 L 384.1875 289.285156 L 384.1875 87.554688 Z M 283.199219 188.421875 " fill-opacity="1" fill-rule="nonzero"/></g><g fill="#000000" fill-opacity="1"><g transform="translate(458.992973, 229.871687)"><g><path d="M 6.5 0 L 6.5 -113.671875 L 19.15625 -113.671875 L 19.15625 -11.53125 L 51.640625 -11.53125 L 51.640625 0 Z M 6.5 0 "/></g></g></g><g fill="#000000" fill-opacity="1"><g transform="translate(513.71338, 229.871687)"><g><path d="M 18.515625 -26.796875 C 18.515625 -21.597656 19.566406 -17.5625 21.671875 -14.6875 C 23.785156 -11.820312 27.171875 -10.390625 31.828125 -10.390625 C 36.378906 -10.390625 39.707031 -11.820312 41.8125 -14.6875 C 43.925781 -17.5625 44.984375 -21.597656 44.984375 -26.796875 L 44.984375 -113.671875 L 56.84375 -113.671875 L 56.84375 -27.4375 C 56.84375 -18.78125 54.785156 -11.828125 50.671875 -6.578125 C 46.554688 -1.328125 40.113281 1.296875 31.34375 1.296875 C 22.675781 1.296875 16.285156 -1.328125 12.171875 -6.578125 C 8.066406 -11.828125 6.015625 -18.78125 6.015625 -27.4375 L 6.015625 -113.671875 L 18.515625 -113.671875 Z M 18.515625 -26.796875 "/></g></g></g><g fill="#000000" fill-opacity="1"><g transform="translate(576.552543, 229.871687)"><g><path d="M 31.015625 -114.8125 C 39.785156 -114.8125 46.253906 -112.210938 50.421875 -107.015625 C 54.585938 -101.816406 56.671875 -94.890625 56.671875 -86.234375 L 56.671875 -76 L 44.65625 -76 L 44.65625 -86.875 C 44.65625 -92.070312 43.597656 -96.101562 41.484375 -98.96875 C 39.378906 -101.84375 36 -103.28125 31.34375 -103.28125 C 26.789062 -103.28125 23.429688 -101.84375 21.265625 -98.96875 C 19.109375 -96.101562 18.03125 -92.070312 18.03125 -86.875 L 18.03125 -26.796875 C 18.03125 -21.597656 19.109375 -17.5625 21.265625 -14.6875 C 23.429688 -11.820312 26.789062 -10.390625 31.34375 -10.390625 C 36 -10.390625 39.378906 -11.820312 41.484375 -14.6875 C 43.597656 -17.5625 44.65625 -21.597656 44.65625 -26.796875 L 44.65625 -41.578125 L 56.671875 -41.578125 L 56.671875 -27.4375 C 56.671875 -18.78125 54.585938 -11.851562 50.421875 -6.65625 C 46.253906 -1.457031 39.785156 1.140625 31.015625 1.140625 C 22.359375 1.140625 15.941406 -1.457031 11.765625 -6.65625 C 7.597656 -11.851562 5.515625 -18.78125 5.515625 -27.4375 L 5.515625 -86.234375 C 5.515625 -90.554688 6.03125 -94.476562 7.0625 -98 C 8.09375 -101.519531 9.660156 -104.523438 11.765625 -107.015625 C 13.878906 -109.503906 16.53125 -111.425781 19.71875 -112.78125 C 22.914062 -114.132812 26.679688 -114.8125 31.015625 -114.8125 Z M 31.015625 -114.8125 "/></g></g></g><g fill="#000000" fill-opacity="1"><g transform="translate(638.255083, 229.871687)"><g><path d="M 19.328125 -22.890625 L 14.9375 0 L 3.25 0 L 25.015625 -113.671875 L 43.359375 -113.671875 L 65.125 0 L 52.453125 0 L 48.0625 -22.890625 Z M 20.953125 -33.78125 L 46.28125 -33.78125 L 33.453125 -99.390625 Z M 20.953125 -33.78125 "/></g></g></g><g fill="#000000" fill-opacity="1"><g transform="translate(706.777373, 229.871687)"><g><path d="M 30.359375 -114.8125 C 39.023438 -114.8125 45.414062 -112.238281 49.53125 -107.09375 C 53.644531 -101.957031 55.703125 -95.054688 55.703125 -86.390625 L 55.703125 -83.3125 L 43.6875 -83.3125 L 43.6875 -87.046875 C 43.6875 -92.242188 42.65625 -96.25 40.59375 -99.0625 C 38.539062 -101.875 35.238281 -103.28125 30.6875 -103.28125 C 26.144531 -103.28125 22.84375 -101.875 20.78125 -99.0625 C 18.726562 -96.25 17.703125 -92.296875 17.703125 -87.203125 C 17.703125 -82.984375 18.648438 -79.300781 20.546875 -76.15625 C 22.441406 -73.019531 24.796875 -70.125 27.609375 -67.46875 C 30.421875 -64.820312 33.476562 -62.222656 36.78125 -59.671875 C 40.082031 -57.128906 43.140625 -54.34375 45.953125 -51.3125 C 48.765625 -48.28125 51.117188 -44.84375 53.015625 -41 C 54.910156 -37.15625 55.859375 -32.582031 55.859375 -27.28125 C 55.859375 -18.625 53.773438 -11.722656 49.609375 -6.578125 C 45.441406 -1.429688 38.972656 1.140625 30.203125 1.140625 C 21.429688 1.140625 14.988281 -1.429688 10.875 -6.578125 C 6.757812 -11.722656 4.703125 -18.625 4.703125 -27.28125 L 4.703125 -33.78125 L 16.5625 -33.78125 L 16.5625 -26.625 C 16.5625 -21.4375 17.644531 -17.429688 19.8125 -14.609375 C 21.976562 -11.796875 25.332031 -10.390625 29.875 -10.390625 C 34.425781 -10.390625 37.785156 -11.796875 39.953125 -14.609375 C 42.117188 -17.429688 43.203125 -21.4375 43.203125 -26.625 C 43.203125 -30.851562 42.253906 -34.507812 40.359375 -37.59375 C 38.460938 -40.675781 36.101562 -43.539062 33.28125 -46.1875 C 30.46875 -48.84375 27.4375 -51.441406 24.1875 -53.984375 C 20.945312 -56.535156 17.914062 -59.328125 15.09375 -62.359375 C 12.28125 -65.390625 9.925781 -68.828125 8.03125 -72.671875 C 6.144531 -76.515625 5.203125 -81.085938 5.203125 -86.390625 C 5.203125 -95.160156 7.253906 -102.085938 11.359375 -107.171875 C 15.472656 -112.265625 21.804688 -114.8125 30.359375 -114.8125 Z M 30.359375 -114.8125 "/></g></g></g><g fill="#000000" fill-opacity="1"><g transform="translate(767.180905, 229.871687)"><g/></g></g><g fill="#000000" fill-opacity="1"><g transform="translate(792.349036, 229.871687)"><g><path d="M 48.390625 -0.15625 L 36.21875 -0.15625 L 17.375 -90.609375 L 17.375 0 L 6.328125 0 L 6.328125 -113.671875 L 24.03125 -113.671875 L 42.703125 -22.890625 L 60.734375 -113.671875 L 78.4375 -113.671875 L 78.4375 0 L 66.421875 0 L 66.421875 -91.421875 Z M 48.390625 -0.15625 "/></g></g></g><g fill="#000000" fill-opacity="1"><g transform="translate(877.271223, 229.871687)"><g><path d="M 46.9375 -63.328125 L 46.9375 -51.96875 L 19.15625 -51.96875 L 19.15625 -11.53125 L 53.265625 -11.53125 L 53.265625 0 L 6.5 0 L 6.5 -113.671875 L 53.265625 -113.671875 L 53.265625 -102.140625 L 19.15625 -102.140625 L 19.15625 -63.328125 Z M 46.9375 -63.328125 "/></g></g></g><g fill="#000000" fill-opacity="1"><g transform="translate(935.726272, 229.871687)"><g><path d="M 33.125 -113.671875 C 42 -113.671875 48.519531 -111.15625 52.6875 -106.125 C 56.863281 -101.09375 58.953125 -94.191406 58.953125 -85.421875 L 58.953125 -28.09375 C 58.953125 -19.320312 56.863281 -12.445312 52.6875 -7.46875 C 48.519531 -2.488281 42 0 33.125 0 L 6.5 0 L 6.5 -113.671875 Z M 32.96875 -11.53125 C 37.507812 -11.53125 40.890625 -12.910156 43.109375 -15.671875 C 45.328125 -18.429688 46.4375 -22.410156 46.4375 -27.609375 L 46.4375 -86.0625 C 46.4375 -91.257812 45.328125 -95.238281 43.109375 -98 C 40.890625 -100.757812 37.453125 -102.140625 32.796875 -102.140625 L 19.15625 -102.140625 L 19.15625 -11.53125 Z M 32.96875 -11.53125 "/></g></g></g><g fill="#000000" fill-opacity="1"><g transform="translate(1000.026829, 229.871687)"><g><path d="M 46.9375 -63.328125 L 46.9375 -51.96875 L 19.15625 -51.96875 L 19.15625 -11.53125 L 53.265625 -11.53125 L 53.265625 0 L 6.5 0 L 6.5 -113.671875 L 53.265625 -113.671875 L 53.265625 -102.140625 L 19.15625 -102.140625 L 19.15625 -63.328125 Z M 46.9375 -63.328125 "/></g></g></g><g fill="#000000" fill-opacity="1"><g transform="translate(1058.481849, 229.871687)"><g><path d="M 19.15625 -113.671875 L 19.15625 0 L 6.5 0 L 6.5 -113.671875 Z M 19.15625 -113.671875 "/></g></g></g><g fill="#000000" fill-opacity="1"><g transform="translate(1084.13713, 229.871687)"><g><path d="M 31.828125 -113.671875 C 40.816406 -113.671875 47.285156 -111.453125 51.234375 -107.015625 C 55.179688 -102.578125 57.15625 -96.132812 57.15625 -87.6875 L 57.15625 -78.4375 C 57.15625 -72.15625 56.019531 -67.066406 53.75 -63.171875 C 51.476562 -59.273438 47.90625 -56.566406 43.03125 -55.046875 C 48.226562 -53.535156 51.910156 -50.75 54.078125 -46.6875 C 56.242188 -42.625 57.328125 -37.507812 57.328125 -31.34375 L 57.328125 -13.640625 C 57.328125 -11.148438 57.429688 -8.738281 57.640625 -6.40625 C 57.859375 -4.082031 58.507812 -1.945312 59.59375 0 L 46.765625 0 C 46.003906 -1.625 45.460938 -3.382812 45.140625 -5.28125 C 44.816406 -7.175781 44.65625 -10.015625 44.65625 -13.796875 L 44.65625 -31.671875 C 44.65625 -38.054688 43.21875 -42.46875 40.34375 -44.90625 C 37.476562 -47.34375 33.394531 -48.5625 28.09375 -48.5625 L 19.15625 -48.5625 L 19.15625 0 L 6.5 0 L 6.5 -113.671875 Z M 28.578125 -60.078125 C 33.671875 -60.078125 37.625 -61.132812 40.4375 -63.25 C 43.25 -65.363281 44.65625 -69.503906 44.65625 -75.671875 L 44.65625 -86.546875 C 44.65625 -91.742188 43.65625 -95.640625 41.65625 -98.234375 C 39.65625 -100.835938 36.269531 -102.140625 31.5 -102.140625 L 19.15625 -102.140625 L 19.15625 -60.078125 Z M 28.578125 -60.078125 "/></g></g></g><g fill="#000000" fill-opacity="1"><g transform="translate(1148.11289, 229.871687)"><g><path d="M 5.515625 -86.234375 C 5.515625 -95.003906 7.648438 -101.957031 11.921875 -107.09375 C 16.203125 -112.238281 22.726562 -114.8125 31.5 -114.8125 C 40.269531 -114.8125 46.820312 -112.238281 51.15625 -107.09375 C 55.488281 -101.957031 57.65625 -95.003906 57.65625 -86.234375 L 57.65625 -27.4375 C 57.65625 -18.78125 55.488281 -11.851562 51.15625 -6.65625 C 46.820312 -1.457031 40.269531 1.140625 31.5 1.140625 C 22.726562 1.140625 16.203125 -1.457031 11.921875 -6.65625 C 7.648438 -11.851562 5.515625 -18.78125 5.515625 -27.4375 Z M 18.03125 -26.796875 C 18.03125 -21.597656 19.140625 -17.5625 21.359375 -14.6875 C 23.578125 -11.820312 26.957031 -10.390625 31.5 -10.390625 C 36.15625 -10.390625 39.566406 -11.820312 41.734375 -14.6875 C 43.898438 -17.5625 44.984375 -21.597656 44.984375 -26.796875 L 44.984375 -86.875 C 44.984375 -92.070312 43.898438 -96.101562 41.734375 -98.96875 C 39.566406 -101.84375 36.15625 -103.28125 31.5 -103.28125 C 26.957031 -103.28125 23.578125 -101.84375 21.359375 -98.96875 C 19.140625 -96.101562 18.03125 -92.070312 18.03125 -86.875 Z M 18.03125 -26.796875 "/></g></g></g><g fill="#000000" fill-opacity="1"><g transform="translate(1211.276851, 229.871687)"><g><path d="M 30.359375 -114.8125 C 39.023438 -114.8125 45.414062 -112.238281 49.53125 -107.09375 C 53.644531 -101.957031 55.703125 -95.054688 55.703125 -86.390625 L 55.703125 -83.3125 L 43.6875 -83.3125 L 43.6875 -87.046875 C 43.6875 -92.242188 42.65625 -96.25 40.59375 -99.0625 C 38.539062 -101.875 35.238281 -103.28125 30.6875 -103.28125 C 26.144531 -103.28125 22.84375 -101.875 20.78125 -99.0625 C 18.726562 -96.25 17.703125 -92.296875 17.703125 -87.203125 C 17.703125 -82.984375 18.648438 -79.300781 20.546875 -76.15625 C 22.441406 -73.019531 24.796875 -70.125 27.609375 -67.46875 C 30.421875 -64.820312 33.476562 -62.222656 36.78125 -59.671875 C 40.082031 -57.128906 43.140625 -54.34375 45.953125 -51.3125 C 48.765625 -48.28125 51.117188 -44.84375 53.015625 -41 C 54.910156 -37.15625 55.859375 -32.582031 55.859375 -27.28125 C 55.859375 -18.625 53.773438 -11.722656 49.609375 -6.578125 C 45.441406 -1.429688 38.972656 1.140625 30.203125 1.140625 C 21.429688 1.140625 14.988281 -1.429688 10.875 -6.578125 C 6.757812 -11.722656 4.703125 -18.625 4.703125 -27.28125 L 4.703125 -33.78125 L 16.5625 -33.78125 L 16.5625 -26.625 C 16.5625 -21.4375 17.644531 -17.429688 19.8125 -14.609375 C 21.976562 -11.796875 25.332031 -10.390625 29.875 -10.390625 C 34.425781 -10.390625 37.785156 -11.796875 39.953125 -14.609375 C 42.117188 -17.429688 43.203125 -21.4375 43.203125 -26.625 C 43.203125 -30.851562 42.253906 -34.507812 40.359375 -37.59375 C 38.460938 -40.675781 36.101562 -43.539062 33.28125 -46.1875 C 30.46875 -48.84375 27.4375 -51.441406 24.1875 -53.984375 C 20.945312 -56.535156 17.914062 -59.328125 15.09375 -62.359375 C 12.28125 -65.390625 9.925781 -68.828125 8.03125 -72.671875 C 6.144531 -76.515625 5.203125 -81.085938 5.203125 -86.390625 C 5.203125 -95.160156 7.253906 -102.085938 11.359375 -107.171875 C 15.472656 -112.265625 21.804688 -114.8125 30.359375 -114.8125 Z M 30.359375 -114.8125 "/></g></g></g></svg>