<svg xmlns="http://www.w3.org/2000/svg" xmlns:xlink="http://www.w3.org/1999/xlink" width="2000" zoomAndPan="magnify" viewBox="0 0 1500 383.999986" height="512" preserveAspectRatio="xMidYMid meet" version="1.0"><defs><g/><clipPath id="49ad20f76b"><path d="M 106.613281 67.304688 L 309.113281 67.304688 L 309.113281 269.054688 L 106.613281 269.054688 Z M 106.613281 67.304688 " clip-rule="nonzero"/></clipPath></defs><g clip-path="url(#49ad20f76b)"><path fill="#000000" d="M 106.71875 67.304688 L 107.363281 67.304688 L 140.300781 100.484375 L 140.300781 218.351562 L 106.71875 252.144531 Z M 140.300781 235.25 L 106.71875 269.042969 L 241.289062 269.042969 L 241.289062 235.25 Z M 208.019531 168.171875 L 150.664062 111.027344 L 150.664062 158.257812 L 208.019531 215.828125 L 275.683594 148.496094 L 275.683594 269.039062 L 309.011719 269.039062 L 309.011719 67.304688 Z M 208.019531 168.171875 " fill-opacity="1" fill-rule="nonzero"/></g><g fill="#000000" fill-opacity="1"><g transform="translate(400.615368, 240.497873)"><g><path d="M 8.3125 0 L 8.3125 -145.5625 L 24.53125 -145.5625 L 24.53125 -14.765625 L 66.125 -14.765625 L 66.125 0 Z M 8.3125 0 "/></g></g></g><g fill="#000000" fill-opacity="1"><g transform="translate(470.689428, 240.497873)"><g><path d="M 23.703125 -34.3125 C 23.703125 -27.65625 25.050781 -22.488281 27.75 -18.8125 C 30.457031 -15.144531 34.796875 -13.3125 40.765625 -13.3125 C 46.585938 -13.3125 50.847656 -15.144531 53.546875 -18.8125 C 56.253906 -22.488281 57.609375 -27.65625 57.609375 -34.3125 L 57.609375 -145.5625 L 72.78125 -145.5625 L 72.78125 -35.140625 C 72.78125 -24.054688 70.144531 -15.148438 64.875 -8.421875 C 59.613281 -1.703125 51.367188 1.65625 40.140625 1.65625 C 29.046875 1.65625 20.863281 -1.703125 15.59375 -8.421875 C 10.320312 -15.148438 7.6875 -24.054688 7.6875 -35.140625 L 7.6875 -145.5625 L 23.703125 -145.5625 Z M 23.703125 -34.3125 "/></g></g></g><g fill="#000000" fill-opacity="1"><g transform="translate(551.160236, 240.497873)"><g><path d="M 39.71875 -147.015625 C 50.945312 -147.015625 59.226562 -143.6875 64.5625 -137.03125 C 69.90625 -130.382812 72.578125 -121.515625 72.578125 -110.421875 L 72.578125 -97.328125 L 57.1875 -97.328125 L 57.1875 -111.25 C 57.1875 -117.90625 55.832031 -123.070312 53.125 -126.75 C 50.425781 -130.425781 46.097656 -132.265625 40.140625 -132.265625 C 34.316406 -132.265625 30.015625 -130.425781 27.234375 -126.75 C 24.460938 -123.070312 23.078125 -117.90625 23.078125 -111.25 L 23.078125 -34.3125 C 23.078125 -27.65625 24.460938 -22.488281 27.234375 -18.8125 C 30.015625 -15.144531 34.316406 -13.3125 40.140625 -13.3125 C 46.097656 -13.3125 50.425781 -15.144531 53.125 -18.8125 C 55.832031 -22.488281 57.1875 -27.65625 57.1875 -34.3125 L 57.1875 -53.234375 L 72.578125 -53.234375 L 72.578125 -35.140625 C 72.578125 -24.054688 69.90625 -15.1875 64.5625 -8.53125 C 59.226562 -1.875 50.945312 1.453125 39.71875 1.453125 C 28.625 1.453125 20.410156 -1.875 15.078125 -8.53125 C 9.742188 -15.1875 7.078125 -24.054688 7.078125 -35.140625 L 7.078125 -110.421875 C 7.078125 -115.960938 7.734375 -120.988281 9.046875 -125.5 C 10.359375 -130.007812 12.363281 -133.859375 15.0625 -137.046875 C 17.769531 -140.234375 21.171875 -142.691406 25.265625 -144.421875 C 29.359375 -146.148438 34.175781 -147.015625 39.71875 -147.015625 Z M 39.71875 -147.015625 "/></g></g></g><g fill="#000000" fill-opacity="1"><g transform="translate(630.175501, 240.497873)"><g><path d="M 24.75 -29.328125 L 19.125 0 L 4.15625 0 L 32.03125 -145.5625 L 55.53125 -145.5625 L 83.390625 0 L 67.171875 0 L 61.546875 -29.328125 Z M 26.828125 -43.25 L 59.265625 -43.25 L 42.84375 -127.265625 Z M 26.828125 -43.25 "/></g></g></g><g fill="#000000" fill-opacity="1"><g transform="translate(717.924028, 240.497873)"><g><path d="M 38.890625 -147.015625 C 49.984375 -147.015625 58.160156 -143.722656 63.421875 -137.140625 C 68.691406 -130.554688 71.328125 -121.71875 71.328125 -110.625 L 71.328125 -106.6875 L 55.9375 -106.6875 L 55.9375 -111.46875 C 55.9375 -118.113281 54.617188 -123.238281 51.984375 -126.84375 C 49.347656 -130.457031 45.117188 -132.265625 39.296875 -132.265625 C 33.472656 -132.265625 29.242188 -130.457031 26.609375 -126.84375 C 23.984375 -123.238281 22.671875 -118.179688 22.671875 -111.671875 C 22.671875 -106.265625 23.878906 -101.550781 26.296875 -97.53125 C 28.722656 -93.507812 31.738281 -89.800781 35.34375 -86.40625 C 38.957031 -83.007812 42.875 -79.679688 47.09375 -76.421875 C 51.320312 -73.160156 55.238281 -69.585938 58.84375 -65.703125 C 62.445312 -61.828125 65.460938 -57.425781 67.890625 -52.5 C 70.316406 -47.582031 71.53125 -41.726562 71.53125 -34.9375 C 71.53125 -23.84375 68.863281 -15.003906 63.53125 -8.421875 C 58.195312 -1.835938 49.910156 1.453125 38.671875 1.453125 C 27.441406 1.453125 19.191406 -1.835938 13.921875 -8.421875 C 8.660156 -15.003906 6.03125 -23.84375 6.03125 -34.9375 L 6.03125 -43.25 L 21.21875 -43.25 L 21.21875 -34.109375 C 21.21875 -27.453125 22.601562 -22.320312 25.375 -18.71875 C 28.144531 -15.113281 32.441406 -13.3125 38.265625 -13.3125 C 44.085938 -13.3125 48.382812 -15.113281 51.15625 -18.71875 C 53.925781 -22.320312 55.3125 -27.453125 55.3125 -34.109375 C 55.3125 -39.515625 54.097656 -44.191406 51.671875 -48.140625 C 49.242188 -52.085938 46.226562 -55.757812 42.625 -59.15625 C 39.019531 -62.550781 35.140625 -65.878906 30.984375 -69.140625 C 26.828125 -72.398438 22.945312 -75.96875 19.34375 -79.84375 C 15.738281 -83.726562 12.722656 -88.128906 10.296875 -93.046875 C 7.867188 -97.972656 6.65625 -103.832031 6.65625 -110.625 C 6.65625 -121.851562 9.285156 -130.722656 14.546875 -137.234375 C 19.816406 -143.753906 27.929688 -147.015625 38.890625 -147.015625 Z M 38.890625 -147.015625 "/></g></g></g><g fill="#000000" fill-opacity="1"><g transform="translate(795.275806, 240.497873)"><g/></g></g><g fill="#000000" fill-opacity="1"><g transform="translate(827.505704, 240.497873)"><g><path d="M 61.96875 -0.203125 L 46.375 -0.203125 L 22.25 -116.03125 L 22.25 0 L 8.109375 0 L 8.109375 -145.5625 L 30.78125 -145.5625 L 54.6875 -29.328125 L 77.78125 -145.5625 L 100.4375 -145.5625 L 100.4375 0 L 85.046875 0 L 85.046875 -117.078125 Z M 61.96875 -0.203125 "/></g></g></g><g fill="#000000" fill-opacity="1"><g transform="translate(936.255671, 240.497873)"><g><path d="M 60.09375 -81.109375 L 60.09375 -66.546875 L 24.53125 -66.546875 L 24.53125 -14.765625 L 68.203125 -14.765625 L 68.203125 0 L 8.3125 0 L 8.3125 -145.5625 L 68.203125 -145.5625 L 68.203125 -130.796875 L 24.53125 -130.796875 L 24.53125 -81.109375 Z M 60.09375 -81.109375 "/></g></g></g><g fill="#000000" fill-opacity="1"><g transform="translate(1011.112253, 240.497873)"><g><path d="M 42.421875 -145.5625 C 53.785156 -145.5625 62.132812 -142.335938 67.46875 -135.890625 C 72.8125 -129.453125 75.484375 -120.617188 75.484375 -109.390625 L 75.484375 -35.96875 C 75.484375 -24.738281 72.8125 -15.9375 67.46875 -9.5625 C 62.132812 -3.1875 53.785156 0 42.421875 0 L 8.3125 0 L 8.3125 -145.5625 Z M 42.21875 -14.765625 C 48.039062 -14.765625 52.367188 -16.53125 55.203125 -20.0625 C 58.046875 -23.601562 59.46875 -28.703125 59.46875 -35.359375 L 59.46875 -110.21875 C 59.46875 -116.875 58.046875 -121.96875 55.203125 -125.5 C 52.367188 -129.03125 47.96875 -130.796875 42 -130.796875 L 24.53125 -130.796875 L 24.53125 -14.765625 Z M 42.21875 -14.765625 "/></g></g></g><g fill="#000000" fill-opacity="1"><g transform="translate(1093.454497, 240.497873)"><g><path d="M 60.09375 -81.109375 L 60.09375 -66.546875 L 24.53125 -66.546875 L 24.53125 -14.765625 L 68.203125 -14.765625 L 68.203125 0 L 8.3125 0 L 8.3125 -145.5625 L 68.203125 -145.5625 L 68.203125 -130.796875 L 24.53125 -130.796875 L 24.53125 -81.109375 Z M 60.09375 -81.109375 "/></g></g></g><g fill="#000000" fill-opacity="1"><g transform="translate(1168.311043, 240.497873)"><g><path d="M 24.53125 -145.5625 L 24.53125 0 L 8.3125 0 L 8.3125 -145.5625 Z M 24.53125 -145.5625 "/></g></g></g><g fill="#000000" fill-opacity="1"><g transform="translate(1201.164776, 240.497873)"><g><path d="M 40.765625 -145.5625 C 52.265625 -145.5625 60.546875 -142.71875 65.609375 -137.03125 C 70.671875 -131.351562 73.203125 -123.109375 73.203125 -112.296875 L 73.203125 -100.4375 C 73.203125 -92.394531 71.742188 -85.878906 68.828125 -80.890625 C 65.921875 -75.898438 61.347656 -72.4375 55.109375 -70.5 C 61.765625 -68.550781 66.476562 -64.976562 69.25 -59.78125 C 72.019531 -54.582031 73.40625 -48.035156 73.40625 -40.140625 L 73.40625 -17.46875 C 73.40625 -14.28125 73.539062 -11.195312 73.8125 -8.21875 C 74.09375 -5.238281 74.925781 -2.5 76.3125 0 L 59.890625 0 C 58.921875 -2.082031 58.226562 -4.332031 57.8125 -6.75 C 57.394531 -9.175781 57.1875 -12.816406 57.1875 -17.671875 L 57.1875 -40.546875 C 57.1875 -48.722656 55.347656 -54.367188 51.671875 -57.484375 C 48.003906 -60.609375 42.769531 -62.171875 35.96875 -62.171875 L 24.53125 -62.171875 L 24.53125 0 L 8.3125 0 L 8.3125 -145.5625 Z M 36.59375 -76.9375 C 43.113281 -76.9375 48.175781 -78.285156 51.78125 -80.984375 C 55.382812 -83.691406 57.1875 -89 57.1875 -96.90625 L 57.1875 -110.84375 C 57.1875 -117.5 55.90625 -122.488281 53.34375 -125.8125 C 50.78125 -129.132812 46.445312 -130.796875 40.34375 -130.796875 L 24.53125 -130.796875 L 24.53125 -76.9375 Z M 36.59375 -76.9375 "/></g></g></g><g fill="#000000" fill-opacity="1"><g transform="translate(1283.091091, 240.497873)"><g><path d="M 7.078125 -110.421875 C 7.078125 -121.648438 9.8125 -130.554688 15.28125 -137.140625 C 20.757812 -143.722656 29.113281 -147.015625 40.34375 -147.015625 C 51.570312 -147.015625 59.957031 -143.722656 65.5 -137.140625 C 71.050781 -130.554688 73.828125 -121.648438 73.828125 -110.421875 L 73.828125 -35.140625 C 73.828125 -24.054688 71.050781 -15.1875 65.5 -8.53125 C 59.957031 -1.875 51.570312 1.453125 40.34375 1.453125 C 29.113281 1.453125 20.757812 -1.875 15.28125 -8.53125 C 9.8125 -15.1875 7.078125 -24.054688 7.078125 -35.140625 Z M 23.078125 -34.3125 C 23.078125 -27.65625 24.5 -22.488281 27.34375 -18.8125 C 30.1875 -15.144531 34.519531 -13.3125 40.34375 -13.3125 C 46.300781 -13.3125 50.664062 -15.144531 53.4375 -18.8125 C 56.21875 -22.488281 57.609375 -27.65625 57.609375 -34.3125 L 57.609375 -111.25 C 57.609375 -117.90625 56.21875 -123.070312 53.4375 -126.75 C 50.664062 -130.425781 46.300781 -132.265625 40.34375 -132.265625 C 34.519531 -132.265625 30.1875 -130.425781 27.34375 -126.75 C 24.5 -123.070312 23.078125 -117.90625 23.078125 -111.25 Z M 23.078125 -34.3125 "/></g></g></g><g fill="#000000" fill-opacity="1"><g transform="translate(1363.977829, 240.497873)"><g><path d="M 38.890625 -147.015625 C 49.984375 -147.015625 58.160156 -143.722656 63.421875 -137.140625 C 68.691406 -130.554688 71.328125 -121.71875 71.328125 -110.625 L 71.328125 -106.6875 L 55.9375 -106.6875 L 55.9375 -111.46875 C 55.9375 -118.113281 54.617188 -123.238281 51.984375 -126.84375 C 49.347656 -130.457031 45.117188 -132.265625 39.296875 -132.265625 C 33.472656 -132.265625 29.242188 -130.457031 26.609375 -126.84375 C 23.984375 -123.238281 22.671875 -118.179688 22.671875 -111.671875 C 22.671875 -106.265625 23.878906 -101.550781 26.296875 -97.53125 C 28.722656 -93.507812 31.738281 -89.800781 35.34375 -86.40625 C 38.957031 -83.007812 42.875 -79.679688 47.09375 -76.421875 C 51.320312 -73.160156 55.238281 -69.585938 58.84375 -65.703125 C 62.445312 -61.828125 65.460938 -57.425781 67.890625 -52.5 C 70.316406 -47.582031 71.53125 -41.726562 71.53125 -34.9375 C 71.53125 -23.84375 68.863281 -15.003906 63.53125 -8.421875 C 58.195312 -1.835938 49.910156 1.453125 38.671875 1.453125 C 27.441406 1.453125 19.191406 -1.835938 13.921875 -8.421875 C 8.660156 -15.003906 6.03125 -23.84375 6.03125 -34.9375 L 6.03125 -43.25 L 21.21875 -43.25 L 21.21875 -34.109375 C 21.21875 -27.453125 22.601562 -22.320312 25.375 -18.71875 C 28.144531 -15.113281 32.441406 -13.3125 38.265625 -13.3125 C 44.085938 -13.3125 48.382812 -15.113281 51.15625 -18.71875 C 53.925781 -22.320312 55.3125 -27.453125 55.3125 -34.109375 C 55.3125 -39.515625 54.097656 -44.191406 51.671875 -48.140625 C 49.242188 -52.085938 46.226562 -55.757812 42.625 -59.15625 C 39.019531 -62.550781 35.140625 -65.878906 30.984375 -69.140625 C 26.828125 -72.398438 22.945312 -75.96875 19.34375 -79.84375 C 15.738281 -83.726562 12.722656 -88.128906 10.296875 -93.046875 C 7.867188 -97.972656 6.65625 -103.832031 6.65625 -110.625 C 6.65625 -121.851562 9.285156 -130.722656 14.546875 -137.234375 C 19.816406 -143.753906 27.929688 -147.015625 38.890625 -147.015625 Z M 38.890625 -147.015625 "/></g></g></g></svg>